<svg width="1216" height="2362" viewBox="0 0 1216 2362" fill="none" xmlns="http://www.w3.org/2000/svg">
<path d="M1200.99 540.219H1209.99C1213.31 540.219 1216 542.908 1216 546.224V625.937C1216 629.254 1213.31 631.942 1209.99 631.942H1200.99V540.219Z" fill="url(#paint0_linear)"/>
<path d="M1200.99 843.183H1209.99C1213.31 843.183 1216 845.871 1216 849.188V1012.29C1216 1015.6 1213.31 1018.29 1209.99 1018.29H1200.99V843.183Z" fill="url(#paint1_linear)"/>
<path d="M0 738.009C0 734.692 2.6885 732.004 6.00494 732.004H18.0148V1021.07H6.00494C2.6885 1021.07 0 1018.38 0 1015.06V738.009Z" fill="url(#paint2_linear)"/>
<path d="M14.5857 201.286C14.7509 137.398 14.8335 105.455 25.7284 80.41C39.1096 49.6496 63.6912 25.1315 94.486 11.83C119.559 0.999939 151.503 0.999939 215.39 0.999939H1003.61C1067.5 0.999939 1099.44 0.999939 1124.52 11.83C1155.31 25.1315 1179.89 49.6496 1193.27 80.41C1204.17 105.455 1204.25 137.399 1204.42 201.286L1209.47 2156.68C1209.64 2220.86 1209.72 2252.95 1198.89 2278.13C1185.58 2309.04 1160.97 2333.71 1130.09 2347.1C1104.95 2358 1072.86 2358 1008.67 2358H210.332C146.146 2358 114.053 2358 88.9099 2347.1C58.029 2333.71 33.4227 2309.04 20.1146 2278.13C9.27903 2252.95 9.36203 2220.86 9.52805 2156.68L14.5857 201.286Z" fill="url(#paint3_linear)"/>
<path fill-rule="evenodd" clip-rule="evenodd" d="M132.109 20.4563C75.7292 20.4563 30.0247 66.1608 30.0247 122.54V2239.24C30.0247 2295.62 75.7292 2341.32 132.109 2341.32H1086.89C1143.27 2341.32 1188.98 2295.62 1188.98 2239.24V122.54C1188.98 66.1609 1143.27 20.4563 1086.89 20.4563H132.109ZM563.638 89.1781C548.081 72.0098 525.331 62.8251 512.307 59.3692H219.18C148.411 59.3692 113.027 59.3692 91.0417 81.3542C69.0566 103.339 69.0566 138.724 69.0566 209.493V2132.83C69.0566 2203.6 69.0566 2238.98 91.0417 2260.97C113.027 2282.95 148.411 2282.95 219.18 2282.95H999.822C1070.59 2282.95 1105.98 2282.95 1127.96 2260.97C1149.95 2238.98 1149.95 2203.6 1149.95 2132.83V209.493C1149.95 138.724 1149.95 103.339 1127.96 81.3542C1105.98 59.3692 1070.59 59.3692 999.822 59.3692H709.555C696.148 62.8251 672.728 72.0098 656.714 89.1781C633.869 113.67 621.685 114.959 609.501 114.959C597.666 114.959 585.83 113.67 563.638 89.1781Z" fill="black"/>
<g opacity="0.5" filter="url(#filter0_f)">
<rect x="34.5284" y="24.96" width="1149.95" height="2311.86" rx="97.5803" stroke="white" stroke-width="9.00741"/>
</g>
<path d="M632.02 73.2665C632.02 84.6109 622.049 94.0011 609.501 94.0011C596.953 94.0011 586.983 84.6109 586.983 73.2665C586.983 61.9221 596.953 52.5319 609.501 52.5319C622.049 52.5319 632.02 61.9221 632.02 73.2665Z" fill="#1D1D1D" stroke="black" stroke-width="3.00247"/>
<path d="M626.015 73.2666C626.015 81.5409 618.733 88.4422 609.502 88.4422C600.27 88.4422 592.988 81.5409 592.988 73.2666C592.988 64.9923 600.27 58.0909 609.502 58.0909C618.733 58.0909 626.015 64.9923 626.015 73.2666Z" fill="#101010" stroke="black" stroke-width="3.00247"/>
<ellipse cx="603.496" cy="67.7076" rx="3.00247" ry="2.77948" fill="#494949"/>
<path d="M620.01 73.2665C615.506 80.2152 610.477 82.3711 605.473 82.8343C606.474 84.6873 611.478 87.0035 615.982 84.224C621.958 80.5357 621.511 74.6563 620.01 73.2665Z" fill="#494949"/>
<g filter="url(#filter1_f)">
<path d="M1137.94 41.3025L84.0693 39.9127V39.9127C95.8943 33.5271 109.119 30.1749 122.558 30.1564L1083.99 28.8339C1102.69 28.8082 1121.15 33.0739 1137.94 41.3025V41.3025Z" fill="url(#paint4_linear)"/>
</g>
<g filter="url(#filter2_f)">
<path d="M84.0691 2321.87H1143.94V2321.87C1128.25 2330.97 1110.44 2335.76 1092.3 2335.76H132.932C115.669 2335.76 98.7479 2330.95 84.0691 2321.87V2321.87Z" fill="url(#paint5_linear)"/>
</g>
<g filter="url(#filter3_f)">
<path d="M1167.96 2291.29L1167.96 67.7078V67.7078C1177.74 82.1578 1182.97 99.2077 1182.97 116.658L1182.97 2244.86C1182.97 2261.53 1177.72 2277.78 1167.96 2291.29V2291.29Z" fill="url(#paint6_linear)"/>
</g>
<g filter="url(#filter4_f)">
<path d="M51.0428 2291.29L51.0429 67.7078V67.7078C41.2596 82.1578 36.0306 99.2077 36.0306 116.658L36.0306 2244.86C36.0306 2261.53 41.2834 2277.78 51.0428 2291.29V2291.29Z" fill="url(#paint7_linear)"/>
</g>
<g filter="url(#filter5_f)">
<path d="M195.16 3.77948H222.183V14.4514C222.183 17.7679 219.494 20.4564 216.178 20.4564H201.165C197.849 20.4564 195.16 17.7679 195.16 14.4514V3.77948Z" fill="black"/>
</g>
<g filter="url(#filter6_f)">
<path d="M297.244 2341.32H327.269V2358H297.244V2341.32Z" fill="black"/>
</g>
<g filter="url(#filter7_f)">
<path d="M1210 2160.66L1210 2188.45L1188.98 2188.45L1188.98 2160.66L1210 2160.66Z" fill="black"/>
</g>
<g filter="url(#filter8_f)">
<path d="M30.0247 2160.66L30.0247 2188.45L9.00737 2188.45L9.00737 2160.66L30.0247 2160.66Z" fill="black"/>
</g>
<g filter="url(#filter9_f)">
<path d="M939.773 3.77948H966.795V14.4514C966.795 17.7679 964.107 20.4564 960.79 20.4564H945.778C942.461 20.4564 939.773 17.7679 939.773 14.4514V3.77948Z" fill="black"/>
</g>
<g filter="url(#filter10_f)">
<path d="M1128.93 28.7948L90.0738 28.7947V28.7947C105.53 21.4754 122.426 17.7018 139.527 17.7499L1073.63 20.3768C1092.38 20.4296 1111.01 23.2665 1128.93 28.7948V28.7948Z" fill="url(#paint8_linear)"/>
</g>
<path d="M297.244 20.4564H310.23V23.6917C310.23 27.2776 307.323 30.1845 303.737 30.1845V30.1845C300.151 30.1845 297.244 27.2776 297.244 23.6917V20.4564Z" fill="#0A0A0A"/>
<path d="M310.23 20.4564H323.216V23.6917C323.216 27.2776 320.309 30.1845 316.723 30.1845V30.1845C313.137 30.1845 310.23 27.2776 310.23 23.6917V20.4564Z" fill="#0A0A0A"/>
<path d="M323.216 20.4564H336.201V23.6917C336.201 27.2776 333.295 30.1845 329.709 30.1845V30.1845C326.123 30.1845 323.216 27.2776 323.216 23.6917V20.4564Z" fill="#0A0A0A"/>
<path d="M336.201 20.4564H349.187V23.6917C349.187 27.2776 346.28 30.1845 342.694 30.1845V30.1845C339.108 30.1845 336.201 27.2776 336.201 23.6917V20.4564Z" fill="#0A0A0A"/>
<path d="M349.187 20.4564H362.173V23.6917C362.173 27.2776 359.266 30.1845 355.68 30.1845V30.1845C352.094 30.1845 349.187 27.2776 349.187 23.6917V20.4564Z" fill="#0A0A0A"/>
<path d="M362.173 20.4564H375.159V23.6917C375.159 27.2776 372.252 30.1845 368.666 30.1845V30.1845C365.08 30.1845 362.173 27.2776 362.173 23.6917V20.4564Z" fill="#0A0A0A"/>
<path d="M375.158 20.4564H388.144V23.6917C388.144 27.2776 385.237 30.1845 381.651 30.1845V30.1845C378.065 30.1845 375.158 27.2776 375.158 23.6917V20.4564Z" fill="#0A0A0A"/>
<path d="M388.144 20.4564H401.13V23.6917C401.13 27.2776 398.223 30.1845 394.637 30.1845V30.1845C391.051 30.1845 388.144 27.2776 388.144 23.6917V20.4564Z" fill="#0A0A0A"/>
<path d="M401.13 20.4564H414.115V23.6917C414.115 27.2776 411.208 30.1845 407.622 30.1845V30.1845C404.037 30.1845 401.13 27.2776 401.13 23.6917V20.4564Z" fill="#0A0A0A"/>
<path d="M414.116 20.4564H427.101V23.6917C427.101 27.2776 424.194 30.1845 420.608 30.1845V30.1845C417.023 30.1845 414.116 27.2776 414.116 23.6917V20.4564Z" fill="#0A0A0A"/>
<path d="M427.101 20.4564H440.087V23.6917C440.087 27.2776 437.18 30.1845 433.594 30.1845V30.1845C430.008 30.1845 427.101 27.2776 427.101 23.6917V20.4564Z" fill="#0A0A0A"/>
<path d="M440.087 20.4564H453.073V23.6917C453.073 27.2776 450.166 30.1845 446.58 30.1845V30.1845C442.994 30.1845 440.087 27.2776 440.087 23.6917V20.4564Z" fill="#0A0A0A"/>
<path d="M453.073 20.4564H466.058V23.6917C466.058 27.2776 463.151 30.1845 459.565 30.1845V30.1845C455.98 30.1845 453.073 27.2776 453.073 23.6917V20.4564Z" fill="#0A0A0A"/>
<path d="M466.058 20.4564H479.044V23.6917C479.044 27.2776 476.137 30.1845 472.551 30.1845V30.1845C468.965 30.1845 466.058 27.2776 466.058 23.6917V20.4564Z" fill="#0A0A0A"/>
<path d="M479.044 20.4564H492.03V23.6917C492.03 27.2776 489.123 30.1845 485.537 30.1845V30.1845C481.951 30.1845 479.044 27.2776 479.044 23.6917V20.4564Z" fill="#0A0A0A"/>
<path d="M492.03 20.4564H505.015V23.6917C505.015 27.2776 502.109 30.1845 498.523 30.1845V30.1845C494.937 30.1845 492.03 27.2776 492.03 23.6917V20.4564Z" fill="#0A0A0A"/>
<path d="M505.015 20.4564H518.001V23.6917C518.001 27.2776 515.094 30.1845 511.508 30.1845V30.1845C507.922 30.1845 505.015 27.2776 505.015 23.6917V20.4564Z" fill="#0A0A0A"/>
<path d="M518.001 20.4564H530.987V23.6917C530.987 27.2776 528.08 30.1845 524.494 30.1845V30.1845C520.908 30.1845 518.001 27.2776 518.001 23.6917V20.4564Z" fill="#0A0A0A"/>
<path d="M530.987 20.4564H543.972V23.6917C543.972 27.2776 541.065 30.1845 537.479 30.1845V30.1845C533.894 30.1845 530.987 27.2776 530.987 23.6917V20.4564Z" fill="#0A0A0A"/>
<path d="M543.973 20.4564H556.958V23.6917C556.958 27.2776 554.051 30.1845 550.465 30.1845V30.1845C546.879 30.1845 543.973 27.2776 543.973 23.6917V20.4564Z" fill="#0A0A0A"/>
<path d="M556.958 20.4564H569.944V23.6917C569.944 27.2776 567.037 30.1845 563.451 30.1845V30.1845C559.865 30.1845 556.958 27.2776 556.958 23.6917V20.4564Z" fill="#0A0A0A"/>
<path d="M569.943 20.4564H582.929V23.6917C582.929 27.2776 580.022 30.1845 576.436 30.1845V30.1845C572.85 30.1845 569.943 27.2776 569.943 23.6917V20.4564Z" fill="#0A0A0A"/>
<path d="M582.93 20.4564H595.915V23.6917C595.915 27.2776 593.008 30.1845 589.422 30.1845V30.1845C585.837 30.1845 582.93 27.2776 582.93 23.6917V20.4564Z" fill="#0A0A0A"/>
<path d="M595.915 20.4564H608.901V23.6917C608.901 27.2776 605.994 30.1845 602.408 30.1845V30.1845C598.822 30.1845 595.915 27.2776 595.915 23.6917V20.4564Z" fill="#0A0A0A"/>
<path d="M608.901 20.4564H621.886V23.6917C621.886 27.2776 618.979 30.1845 615.394 30.1845V30.1845C611.808 30.1845 608.901 27.2776 608.901 23.6917V20.4564Z" fill="#0A0A0A"/>
<path d="M621.886 20.4564H634.872V23.6917C634.872 27.2776 631.965 30.1845 628.379 30.1845V30.1845C624.793 30.1845 621.886 27.2776 621.886 23.6917V20.4564Z" fill="#0A0A0A"/>
<path d="M634.872 20.4564H647.858V23.6917C647.858 27.2776 644.951 30.1845 641.365 30.1845V30.1845C637.779 30.1845 634.872 27.2776 634.872 23.6917V20.4564Z" fill="#0A0A0A"/>
<path d="M647.858 20.4564H660.843V23.6917C660.843 27.2776 657.937 30.1845 654.351 30.1845V30.1845C650.765 30.1845 647.858 27.2776 647.858 23.6917V20.4564Z" fill="#0A0A0A"/>
<path d="M660.843 20.4564H673.829V23.6917C673.829 27.2776 670.922 30.1845 667.336 30.1845V30.1845C663.75 30.1845 660.843 27.2776 660.843 23.6917V20.4564Z" fill="#0A0A0A"/>
<path d="M673.829 20.4564H686.815V23.6917C686.815 27.2776 683.908 30.1845 680.322 30.1845V30.1845C676.736 30.1845 673.829 27.2776 673.829 23.6917V20.4564Z" fill="#0A0A0A"/>
<path d="M686.815 20.4564H699.801V23.6917C699.801 27.2776 696.894 30.1845 693.308 30.1845V30.1845C689.722 30.1845 686.815 27.2776 686.815 23.6917V20.4564Z" fill="#0A0A0A"/>
<path d="M699.8 20.4564H712.786V23.6917C712.786 27.2776 709.879 30.1845 706.293 30.1845V30.1845C702.707 30.1845 699.8 27.2776 699.8 23.6917V20.4564Z" fill="#0A0A0A"/>
<path d="M712.786 20.4564H725.772V23.6917C725.772 27.2776 722.865 30.1845 719.279 30.1845V30.1845C715.693 30.1845 712.786 27.2776 712.786 23.6917V20.4564Z" fill="#0A0A0A"/>
<path d="M725.772 20.4564H738.758V23.6917C738.758 27.2776 735.851 30.1845 732.265 30.1845V30.1845C728.679 30.1845 725.772 27.2776 725.772 23.6917V20.4564Z" fill="#0A0A0A"/>
<path d="M738.758 20.4564H751.743V23.6917C751.743 27.2776 748.836 30.1845 745.251 30.1845V30.1845C741.665 30.1845 738.758 27.2776 738.758 23.6917V20.4564Z" fill="#0A0A0A"/>
<path d="M751.743 20.4564H764.729V23.6917C764.729 27.2776 761.822 30.1845 758.236 30.1845V30.1845C754.65 30.1845 751.743 27.2776 751.743 23.6917V20.4564Z" fill="#0A0A0A"/>
<path d="M764.729 20.4564H777.715V23.6917C777.715 27.2776 774.808 30.1845 771.222 30.1845V30.1845C767.636 30.1845 764.729 27.2776 764.729 23.6917V20.4564Z" fill="#0A0A0A"/>
<path d="M777.714 20.4564H790.7V23.6917C790.7 27.2776 787.793 30.1845 784.207 30.1845V30.1845C780.621 30.1845 777.714 27.2776 777.714 23.6917V20.4564Z" fill="#0A0A0A"/>
<path d="M790.7 20.4564H803.686V23.6917C803.686 27.2776 800.779 30.1845 797.193 30.1845V30.1845C793.607 30.1845 790.7 27.2776 790.7 23.6917V20.4564Z" fill="#0A0A0A"/>
<path d="M803.686 20.4564H816.672V23.6917C816.672 27.2776 813.765 30.1845 810.179 30.1845V30.1845C806.593 30.1845 803.686 27.2776 803.686 23.6917V20.4564Z" fill="#0A0A0A"/>
<path d="M816.672 20.4564H829.657V23.6917C829.657 27.2776 826.75 30.1845 823.165 30.1845V30.1845C819.579 30.1845 816.672 27.2776 816.672 23.6917V20.4564Z" fill="#0A0A0A"/>
<path d="M829.657 20.4564H842.643V23.6917C842.643 27.2776 839.736 30.1845 836.15 30.1845V30.1845C832.564 30.1845 829.657 27.2776 829.657 23.6917V20.4564Z" fill="#0A0A0A"/>
<path d="M842.643 20.4564H855.629V23.6917C855.629 27.2776 852.722 30.1845 849.136 30.1845V30.1845C845.55 30.1845 842.643 27.2776 842.643 23.6917V20.4564Z" fill="#0A0A0A"/>
<path d="M855.629 20.4564H868.615V23.6917C868.615 27.2776 865.708 30.1845 862.122 30.1845V30.1845C858.536 30.1845 855.629 27.2776 855.629 23.6917V20.4564Z" fill="#0A0A0A"/>
<path d="M868.614 20.4564H881.6V23.6917C881.6 27.2776 878.693 30.1845 875.107 30.1845V30.1845C871.521 30.1845 868.614 27.2776 868.614 23.6917V20.4564Z" fill="#0A0A0A"/>
<path d="M881.6 20.4564H894.586V23.6917C894.586 27.2776 891.679 30.1845 888.093 30.1845V30.1845C884.507 30.1845 881.6 27.2776 881.6 23.6917V20.4564Z" fill="#0A0A0A"/>
<path d="M894.586 20.4564H907.572V23.6917C907.572 27.2776 904.665 30.1845 901.079 30.1845V30.1845C897.493 30.1845 894.586 27.2776 894.586 23.6917V20.4564Z" fill="#0A0A0A"/>
<path d="M907.572 20.4564H920.557V23.6917C920.557 27.2776 917.65 30.1845 914.064 30.1845V30.1845C910.478 30.1845 907.572 27.2776 907.572 23.6917V20.4564Z" fill="#0A0A0A"/>
<defs>
<filter id="filter0_f" x="24.0197" y="14.4514" width="1170.96" height="2332.88" filterUnits="userSpaceOnUse" color-interpolation-filters="sRGB">
<feFlood flood-opacity="0" result="BackgroundImageFix"/>
<feBlend mode="normal" in="SourceGraphic" in2="BackgroundImageFix" result="shape"/>
<feGaussianBlur stdDeviation="3.00247" result="effect1_foregroundBlur"/>
</filter>
<filter id="filter1_f" x="81.0669" y="25.8313" width="1059.87" height="18.4737" filterUnits="userSpaceOnUse" color-interpolation-filters="sRGB">
<feFlood flood-opacity="0" result="BackgroundImageFix"/>
<feBlend mode="normal" in="SourceGraphic" in2="BackgroundImageFix" result="shape"/>
<feGaussianBlur stdDeviation="1.50123" result="effect1_foregroundBlur"/>
</filter>
<filter id="filter2_f" x="81.0666" y="2318.86" width="1065.88" height="19.9023" filterUnits="userSpaceOnUse" color-interpolation-filters="sRGB">
<feFlood flood-opacity="0" result="BackgroundImageFix"/>
<feBlend mode="normal" in="SourceGraphic" in2="BackgroundImageFix" result="shape"/>
<feGaussianBlur stdDeviation="1.50123" result="effect1_foregroundBlur"/>
</filter>
<filter id="filter3_f" x="1164.96" y="64.7054" width="21.0174" height="2229.59" filterUnits="userSpaceOnUse" color-interpolation-filters="sRGB">
<feFlood flood-opacity="0" result="BackgroundImageFix"/>
<feBlend mode="normal" in="SourceGraphic" in2="BackgroundImageFix" result="shape"/>
<feGaussianBlur stdDeviation="1.50123" result="effect1_foregroundBlur"/>
</filter>
<filter id="filter4_f" x="33.028" y="64.7054" width="21.0174" height="2229.59" filterUnits="userSpaceOnUse" color-interpolation-filters="sRGB">
<feFlood flood-opacity="0" result="BackgroundImageFix"/>
<feBlend mode="normal" in="SourceGraphic" in2="BackgroundImageFix" result="shape"/>
<feGaussianBlur stdDeviation="1.50123" result="effect1_foregroundBlur"/>
</filter>
<filter id="filter5_f" x="192.158" y="0.77701" width="33.0272" height="22.6818" filterUnits="userSpaceOnUse" color-interpolation-filters="sRGB">
<feFlood flood-opacity="0" result="BackgroundImageFix"/>
<feBlend mode="normal" in="SourceGraphic" in2="BackgroundImageFix" result="shape"/>
<feGaussianBlur stdDeviation="1.50123" result="effect1_foregroundBlur"/>
</filter>
<filter id="filter6_f" x="294.242" y="2338.32" width="36.0296" height="22.6818" filterUnits="userSpaceOnUse" color-interpolation-filters="sRGB">
<feFlood flood-opacity="0" result="BackgroundImageFix"/>
<feBlend mode="normal" in="SourceGraphic" in2="BackgroundImageFix" result="shape"/>
<feGaussianBlur stdDeviation="1.50123" result="effect1_foregroundBlur"/>
</filter>
<filter id="filter7_f" x="1185.98" y="2157.66" width="27.0222" height="33.7998" filterUnits="userSpaceOnUse" color-interpolation-filters="sRGB">
<feFlood flood-opacity="0" result="BackgroundImageFix"/>
<feBlend mode="normal" in="SourceGraphic" in2="BackgroundImageFix" result="shape"/>
<feGaussianBlur stdDeviation="1.50123" result="effect1_foregroundBlur"/>
</filter>
<filter id="filter8_f" x="6.00485" y="2157.66" width="27.0222" height="33.7998" filterUnits="userSpaceOnUse" color-interpolation-filters="sRGB">
<feFlood flood-opacity="0" result="BackgroundImageFix"/>
<feBlend mode="normal" in="SourceGraphic" in2="BackgroundImageFix" result="shape"/>
<feGaussianBlur stdDeviation="1.50123" result="effect1_foregroundBlur"/>
</filter>
<filter id="filter9_f" x="936.77" y="0.77701" width="33.0272" height="22.6818" filterUnits="userSpaceOnUse" color-interpolation-filters="sRGB">
<feFlood flood-opacity="0" result="BackgroundImageFix"/>
<feBlend mode="normal" in="SourceGraphic" in2="BackgroundImageFix" result="shape"/>
<feGaussianBlur stdDeviation="1.50123" result="effect1_foregroundBlur"/>
</filter>
<filter id="filter10_f" x="87.0713" y="14.747" width="1044.86" height="17.0503" filterUnits="userSpaceOnUse" color-interpolation-filters="sRGB">
<feFlood flood-opacity="0" result="BackgroundImageFix"/>
<feBlend mode="normal" in="SourceGraphic" in2="BackgroundImageFix" result="shape"/>
<feGaussianBlur stdDeviation="1.50123" result="effect1_foregroundBlur"/>
</filter>
<linearGradient id="paint0_linear" x1="1223.51" y1="648.685" x2="1200.99" y2="648.404" gradientUnits="userSpaceOnUse">
<stop stop-color="#7FA3D4"/>
<stop offset="0.0001" stop-color="#7FA4D7"/>
<stop offset="1" stop-color="#0D2A40"/>
</linearGradient>
<linearGradient id="paint1_linear" x1="1223.51" y1="1050.25" x2="1200.99" y2="1050.11" gradientUnits="userSpaceOnUse">
<stop stop-color="#7FA3D4"/>
<stop offset="0.0001" stop-color="#7FA4D7"/>
<stop offset="1" stop-color="#0D2A40"/>
</linearGradient>
<linearGradient id="paint2_linear" x1="-9.00741" y1="1071.1" x2="24.0198" y2="1071.1" gradientUnits="userSpaceOnUse">
<stop stop-color="#7FA3D4"/>
<stop offset="0.0001" stop-color="#7FA4D7"/>
<stop offset="1" stop-color="#0D2A40"/>
</linearGradient>
<linearGradient id="paint3_linear" x1="609.501" y1="0.999939" x2="609.501" y2="2358" gradientUnits="userSpaceOnUse">
<stop stop-color="#1D3A5C"/>
<stop offset="1" stop-color="#74A9D1"/>
</linearGradient>
<linearGradient id="paint4_linear" x1="614.005" y1="60.7589" x2="614.005" y2="26.0154" gradientUnits="userSpaceOnUse">
<stop stop-opacity="0"/>
<stop offset="1" stop-color="#767676"/>
</linearGradient>
<linearGradient id="paint5_linear" x1="614.005" y1="2316.31" x2="614.005" y2="2335.76" gradientUnits="userSpaceOnUse">
<stop stop-opacity="0"/>
<stop offset="1" stop-color="#737373"/>
</linearGradient>
<linearGradient id="paint6_linear" x1="1161.96" y1="558.287" x2="1182.97" y2="558.287" gradientUnits="userSpaceOnUse">
<stop stop-opacity="0"/>
<stop offset="1" stop-color="#737373"/>
</linearGradient>
<linearGradient id="paint7_linear" x1="57.0479" y1="558.287" x2="36.0306" y2="558.287" gradientUnits="userSpaceOnUse">
<stop stop-opacity="0"/>
<stop offset="1" stop-color="#737373"/>
</linearGradient>
<linearGradient id="paint8_linear" x1="609.501" y1="38.523" x2="609.501" y2="17.6769" gradientUnits="userSpaceOnUse">
<stop stop-opacity="0.5"/>
<stop offset="1"/>
</linearGradient>
</defs>
</svg>
