<?xml version="1.0" standalone="no"?>
<!DOCTYPE svg PUBLIC "-//W3C//DTD SVG 20010904//EN"
 "http://www.w3.org/TR/2001/REC-SVG-20010904/DTD/svg10.dtd">
<svg version="1.0" xmlns="http://www.w3.org/2000/svg"
 width="700.000000pt" height="700.000000pt" viewBox="0 0 700.000000 700.000000"
 preserveAspectRatio="xMidYMid meet">
<metadata>
Created by potrace 1.11, written by Peter Selinger 2001-2013
</metadata>
<g transform="translate(0.000000,700.000000) scale(0.100000,-0.100000)"
fill="#000000" stroke="none">
<path d="M3245 6993 c-16 -2 -79 -8 -140 -14 -95 -9 -140 -16 -285 -43 -154
-28 -395 -96 -550 -155 -602 -227 -1107 -596 -1523 -1110 -104 -129 -260 -371
-351 -546 -211 -402 -336 -829 -385 -1315 -9 -87 -7 -587 2 -650 3 -19 8 -60
12 -91 3 -31 8 -67 10 -80 3 -13 7 -41 11 -64 10 -70 55 -286 65 -312 5 -13
11 -37 14 -52 8 -46 84 -267 132 -386 321 -791 935 -1447 1703 -1822 300 -146
687 -269 970 -308 25 -3 52 -8 60 -10 8 -2 47 -7 85 -11 39 -3 79 -9 90 -11
37 -9 559 -11 635 -3 41 5 100 12 130 15 121 13 356 58 480 92 71 19 296 92
335 108 17 7 71 29 120 50 402 167 785 423 1095 735 168 168 195 198 302 335
312 402 520 833 639 1323 74 306 94 488 94 857 -1 245 -11 391 -40 545 -3 14
-7 41 -10 60 -24 158 -123 512 -180 645 -7 17 -32 75 -56 130 -122 286 -317
601 -522 845 -90 107 -307 326 -412 416 -438 376 -994 648 -1560 762 -55 12
-120 24 -145 27 -24 4 -47 8 -50 10 -6 3 -99 13 -230 25 -82 7 -484 9 -545 3z"/>
</g>
</svg>
