<svg width="350" height="350" viewBox="0 0 350 350" fill="none" xmlns="http://www.w3.org/2000/svg">
<rect width="350" height="350" rx="175" fill="url(#paint0_linear)"/>
<rect y="350" width="350" height="350" rx="175" transform="rotate(-90 0 350)" fill="url(#paint1_linear)" style="mix-blend-mode:overlay"/>
<path d="M221.053 248.684C218.382 248.684 215.895 248.132 214.053 247.303C207.513 243.895 202.908 239.197 198.303 225.382C193.605 211.013 184.763 204.29 176.289 197.75C169.013 192.132 161.461 186.329 154.921 174.447C150.039 165.605 147.368 155.934 147.368 147.368C147.368 121.579 167.632 101.316 193.421 101.316C219.211 101.316 239.474 121.579 239.474 147.368H257.895C257.895 111.171 229.618 82.8948 193.421 82.8948C157.224 82.8948 128.947 111.171 128.947 147.368C128.947 158.974 132.447 171.776 138.803 183.29C147.184 198.487 157.039 206.132 165.053 212.303C172.513 218.013 177.855 222.158 180.803 231.184C186.329 247.947 193.421 257.342 205.947 263.882C210.645 266 215.803 267.105 221.053 267.105C241.408 267.105 257.895 250.618 257.895 230.263H239.474C239.474 240.395 231.184 248.684 221.053 248.684ZM134.842 88.7895L121.763 75.7106C103.434 94.0395 92.1052 119.368 92.1052 147.368C92.1052 175.368 103.434 200.697 121.763 219.026L134.75 206.04C119.829 191.026 110.526 170.303 110.526 147.368C110.526 124.434 119.829 103.711 134.842 88.7895ZM170.395 147.368C170.395 160.079 180.711 170.395 193.421 170.395C206.132 170.395 216.447 160.079 216.447 147.368C216.447 134.658 206.132 124.342 193.421 124.342C180.711 124.342 170.395 134.658 170.395 147.368Z" fill="white"/>
<defs>
<linearGradient id="paint0_linear" x1="8.53644e-06" y1="-4.60527" x2="350" y2="350" gradientUnits="userSpaceOnUse">
<stop offset="0.270833" stop-color="#FF5722"/>
<stop offset="0.723958" stop-color="#1ABCFE"/>
</linearGradient>
<linearGradient id="paint1_linear" x1="8.53644e-06" y1="345.395" x2="350" y2="700" gradientUnits="userSpaceOnUse">
<stop offset="0.270833" stop-color="#FF5722"/>
<stop offset="0.723958" stop-color="#1ABCFE"/>
</linearGradient>
</defs>
</svg>
